<svg width="25" height="24" viewBox="0 0 25 24" fill="none" xmlns="http://www.w3.org/2000/svg">
<g clip-path="url(#clip0_4_122)">
<path d="M12.51 2.01099C13.2878 2.01103 14.0389 2.29436 14.623 2.80799L14.777 2.95299L15.475 3.65099C15.6666 3.8413 15.9167 3.96144 16.185 3.99199L16.32 3.99999H17.32C18.1372 3.99994 18.9235 4.31256 19.5176 4.87373C20.1116 5.4349 20.4685 6.20209 20.515 7.01799L20.52 7.19999V8.19999C20.52 8.46999 20.612 8.73299 20.778 8.94299L20.868 9.04299L21.565 9.74099C22.1427 10.3154 22.4796 11.0886 22.5069 11.9029C22.5342 12.7171 22.2499 13.5111 21.712 14.123L21.567 14.277L20.869 14.975C20.6787 15.1665 20.5585 15.4167 20.528 15.685L20.52 15.82V16.82C20.52 17.6372 20.2074 18.4235 19.6463 19.0176C19.0851 19.6116 18.3179 19.9685 17.502 20.015L17.32 20.02H16.32C16.0504 20.0201 15.7886 20.111 15.577 20.278L15.477 20.368L14.779 21.065C14.2046 21.6427 13.4314 21.9796 12.6171 22.0069C11.8029 22.0342 11.0089 21.7499 10.397 21.212L10.243 21.067L9.545 20.369C9.35344 20.1787 9.10329 20.0585 8.835 20.028L8.7 20.02H7.7C6.88278 20.02 6.09651 19.7074 5.50243 19.1462C4.90835 18.5851 4.55148 17.8179 4.505 17.002L4.5 16.82V15.82C4.49991 15.5504 4.40903 15.2886 4.242 15.077L4.152 14.977L3.455 14.279C2.87728 13.7045 2.54042 12.9314 2.51311 12.1171C2.48579 11.3029 2.77008 10.5089 3.308 9.89699L3.453 9.74299L4.151 9.04499C4.34131 8.85343 4.46145 8.60328 4.492 8.33499L4.5 8.19999V7.19999L4.505 7.01799C4.54965 6.23343 4.88143 5.49274 5.43709 4.93707C5.99275 4.38141 6.73345 4.04964 7.518 4.00499L7.7 3.99999H8.7C8.96962 3.9999 9.23135 3.90901 9.443 3.74199L9.543 3.65199L10.241 2.95499C10.5383 2.65588 10.8919 2.41849 11.2813 2.25649C11.6707 2.09448 12.0882 2.01105 12.51 2.01099ZM16.207 9.29299C16.0195 9.10552 15.7652 9.0002 15.5 9.0002C15.2348 9.0002 14.9805 9.10552 14.793 9.29299L11.5 12.585L10.207 11.293L10.113 11.21C9.91201 11.0546 9.6594 10.9815 9.40647 11.0056C9.15355 11.0297 8.91928 11.1491 8.75125 11.3397C8.58321 11.5303 8.49402 11.7777 8.50177 12.0316C8.50953 12.2856 8.61365 12.527 8.793 12.707L10.793 14.707L10.887 14.79C11.0794 14.9392 11.3197 15.0132 11.5627 14.9979C11.8057 14.9826 12.0348 14.8792 12.207 14.707L16.207 10.707L16.29 10.613C16.4393 10.4206 16.5132 10.1803 16.4979 9.93731C16.4826 9.69428 16.3792 9.46518 16.207 9.29299Z" fill="#5DB35C"/>
</g>
<defs>
<clipPath id="clip0_4_122">
<rect width="24" height="24" fill="white" transform="translate(0.5)"/>
</clipPath>
</defs>
</svg>
